<svg id="_02-FIXED_-quickmenu" data-name="02-FIXED -quickmenu" xmlns="http://www.w3.org/2000/svg" viewBox="0 0 30.91 35.68">
  <title>icon-cv</title>
  <g>
    <path d="M46.21,889.17l1.27,2.65a0.25,0.25,0,0,0,.37.1l2.44-1.62a0.25,0.25,0,0,1,.39.23l-0.22,2.92a0.25,0.25,0,0,0,.27.27l2.91-.18a0.25,0.25,0,0,1,.22.4l-1.65,2.41a0.25,0.25,0,0,0,.1.37l2.62,1.3a0.25,0.25,0,0,1,0,.45l-2.64,1.27a0.25,0.25,0,0,0-.1.37l1.61,2.44a0.25,0.25,0,0,1-.23.39l-2.92-.21a0.25,0.25,0,0,0-.27.27l0.19,2.92a0.25,0.25,0,0,1-.4.22l-2.42-1.65a0.25,0.25,0,0,0-.37.1l-1.3,2.62a0.25,0.25,0,0,1-.45,0l-1.27-2.64a0.25,0.25,0,0,0-.37-0.1l-2.44,1.62a0.25,0.25,0,0,1-.39-0.23l0.22-2.92a0.25,0.25,0,0,0-.27-0.27l-2.93.18a0.25,0.25,0,0,1-.22-0.4L39.62,900a0.25,0.25,0,0,0-.1-0.37l-2.62-1.31a0.25,0.25,0,0,1,0-.46l2.64-1.26a0.25,0.25,0,0,0,.1-0.37L38,893.82a0.25,0.25,0,0,1,.23-0.39l2.91,0.22a0.25,0.25,0,0,0,.27-0.27l-0.17-2.92a0.25,0.25,0,0,1,.4-0.22l2.41,1.65a0.25,0.25,0,0,0,.37-0.1l1.3-2.62A0.25,0.25,0,0,1,46.21,889.17ZM45,899.55a0.25,0.25,0,0,1-.39,0l-1-1.12a1.45,1.45,0,0,0-2.12-.27,1.42,1.42,0,0,0-.05,2.13c0.63,0.74,1.27,1.47,1.91,2.2a1.88,1.88,0,0,0,2.93,0l2.68-3.17,2.17-2.57a1.44,1.44,0,0,0-.05-2.13,1.46,1.46,0,0,0-2.12.26l-0.24.29Z" transform="translate(-24.17 -871.66)" fill="#005bb6"/>
    <g>
      <path d="M35.8,880.68a2.68,2.68,0,0,0-2.17-1,2.5,2.5,0,0,0-2.53,2.64,2.47,2.47,0,0,0,2.57,2.59,2.84,2.84,0,0,0,2.13-1v3a7,7,0,0,1-2.18.44,5.29,5.29,0,0,1-3.57-1.4,4.65,4.65,0,0,1-1.53-3.59,5,5,0,0,1,1.4-3.48,5.15,5.15,0,0,1,3.62-1.54,5.8,5.8,0,0,1,2.26.48v3Z" transform="translate(-24.17 -871.66)" fill="#005bb6"/>
      <path d="M41.31,883.27l2.31-5.78h2.69L42.25,887H40.33l-4-9.51H39Z" transform="translate(-24.17 -871.66)" fill="#005bb6"/>
    </g>
    <path d="M48.79,889.83v-0.7q0-7,0-14A1.64,1.64,0,0,0,47,873.33H27.85A1.68,1.68,0,0,0,26,875.18q0,12.06,0,24.13a1.66,1.66,0,0,0,1.86,1.84h9.58c-0.29.57-.53,1.07-0.8,1.56a0.5,0.5,0,0,1-.37.13c-3.26,0-6.53,0-9.79,0a2.37,2.37,0,0,1-2.29-2.37q0-13.19,0-26.37a2.36,2.36,0,0,1,2.14-2.39,8.15,8.15,0,0,1,1,0H47.81c1.92,0,2.84.93,2.84,2.86,0,4.57,0,9.13,0,13.7a0.78,0.78,0,0,1-.48.84C49.74,889.26,49.32,889.53,48.79,889.83Z" transform="translate(-24.17 -871.66)" fill="#005bb6"/>
  </g>
</svg>
