<svg id="_02-FIXED_-quickmenu" data-name="02-FIXED -quickmenu" xmlns="http://www.w3.org/2000/svg" viewBox="0 0 26.83 34.37">
  <title>icon-position</title>
  <path d="M37.19,803.84a13.21,13.21,0,0,0-13.42,13A16.27,16.27,0,0,0,25,822.7c3.3,7.38,12.18,15.56,12.2,15.52s8.86-8.1,12.18-15.47c1-1.75,1.24-5.62,1.24-5.91A13.21,13.21,0,0,0,37.19,803.84Zm0,17.19a3.76,3.76,0,1,1,3.76-3.76A3.76,3.76,0,0,1,37.19,821Z" transform="translate(-23.77 -803.84)" />
  <!-- <path d="M37.19,803.84a13.21,13.21,0,0,0-13.42,13A16.27,16.27,0,0,0,25,822.7c3.3,7.38,12.18,15.56,12.2,15.52s8.86-8.1,12.18-15.47c1-1.75,1.24-5.62,1.24-5.91A13.21,13.21,0,0,0,37.19,803.84Zm0,17.19a3.76,3.76,0,1,1,3.76-3.76A3.76,3.76,0,0,1,37.19,821Z" transform="translate(-23.77 -803.84)" fill="#005bb6" fill-rule="evenodd"/> -->
</svg>
